<svg xmlns="http://www.w3.org/2000/svg" version="1.1" xmlns:xlink="http://www.w3.org/1999/xlink" width="512" height="512" x="0" y="0" viewBox="0 0 24 24" style="enable-background:new 0 0 512 512" xml:space="preserve" class=""><g><path fill="#1270af" d="M19.714 9.297C19.357 5.352 16.036 2.25 12 2.25S4.643 5.352 4.286 9.297a2.5 2.5 0 0 0-2.036 2.451v2.505a2.5 2.5 0 0 0 2.497 2.497H5c.965 0 1.75-.785 1.75-1.75v-4c0-.684-.398-1.271-.972-1.559C6.062 6.256 8.742 3.75 12 3.75s5.938 2.506 6.222 5.691A1.747 1.747 0 0 0 17.25 11v4c0 .325.095.626.25.888-.006.038-.023.073-.023.112a4.254 4.254 0 0 1-4.25 4.25h-1.228a.75.75 0 0 0 0 1.5h1.228c2.919 0 5.331-2.187 5.697-5.008.026.001.05.008.076.008h.253a2.5 2.5 0 0 0 2.497-2.497v-2.505a2.5 2.5 0 0 0-2.036-2.451z" opacity="1" data-original="#549bff" class=""></path><rect width="13.5" height="12.5" x="5.25" y="6.25" fill="#31c6ff" rx="2.75" opacity="1" data-original="#bad7ff" class=""></rect><path fill="#1270af" d="M10 12.75a.75.75 0 0 1-.75-.75v-1a.75.75 0 0 1 1.5 0v1a.75.75 0 0 1-.75.75zm4-2.5a.75.75 0 0 0-.75.75v1a.75.75 0 0 0 1.5 0v-1a.75.75 0 0 0-.75-.75zm-1 4h-2a.75.75 0 0 0 0 1.5h2a.75.75 0 0 0 0-1.5z" opacity="1" data-original="#549bff" class=""></path></g></svg>