<svg xmlns="http://www.w3.org/2000/svg" version="1.1" xmlns:xlink="http://www.w3.org/1999/xlink" width="512" height="512" x="0" y="0" viewBox="0 0 511.992 511.992" style="enable-background:new 0 0 512 512" xml:space="preserve" class=""><g><path d="M506.021 19.53c-4.448-3.584-10.592-4.512-15.968-2.4l-480 192A15.98 15.98 0 0 0 .005 223.562a15.996 15.996 0 0 0 9.312 14.944l150.688 69.568 336-276.096-272 305.632v158.368l113.536-105.952 87.744 40.48c2.144.96 4.448 1.472 6.72 1.472 2.56 0 5.152-.64 7.456-1.856 4.448-2.336 7.488-6.592 8.32-11.52l64-384c.928-5.664-1.248-11.456-5.76-15.072z" fill="#cccccc" opacity="1" data-original="#000000" class=""></path></g></svg>